# xmcd CD database file
# Generated: Tue Apr 13 04:46:57 2004 by WSPse's MP3c
#
# Track frame offsets:
#       150
#       22975
#       42980
#       59567
#       87170
#       113780
#       138320
#       158170
#       178382
#       191177
#       208755
#       237610
#
# Disc length: 3306 seconds
#
# Revision: 0
# Processed by: cddbd v1.5PL3 Copyright (c) Steve Scherf et al.
# Submitted via: MP3c 0.26
#   WSPse mp3c-0.26 (NLS) - ENGLISH (Mar  6 2003)
#
DISCID=b00ce80c
DTITLE=Larry Long - Well May the World Go
DYEAR=1900
DGENRE=
TTITLE0=Chicky Chicky Boom
TTITLE1=No Jobs in Texas
TTITLE2=Down with the Ku Klux Klan
TTITLE3=Somalia
TTITLE4=Sugar
TTITLE5=All the Way to Paradise
TTITLE6=Brazil
TTITLE7=Ramona
TTITLE8=Muscovite Feel Alright
TTITLE9=Some Things Are Not For Sale
TTITLE10=Well May the World Go
TTITLE11=Sweet Laura Rose
EXTD=
EXTT0=
EXTT1=
EXTT2=
EXTT3=
EXTT4=
EXTT5=
EXTT6=
EXTT7=
EXTT8=
EXTT9=
EXTT10=
EXTT11=
PLAYORDER=
